<svg xmlns="http://www.w3.org/2000/svg" viewBox="0 0 1266.23 602"><defs><style>.cls-1{fill:none;stroke:#abd5ff;stroke-linecap:round;stroke-linejoin:round;stroke-width:3px;}.cls-2{fill:#fff;}.cls-3{fill:#abd5ff;}</style></defs><title>bg ele r 2</title><g id="Camada_2" data-name="Camada 2"><g id="Camada_1-2" data-name="Camada 1"><polyline class="cls-1" points="1194.72 50.5 534.73 50.5 534.73 344.5 342.73 344.5 342.73 453.5 606.73 453.5 606.73 267.5 888.73 267.5 888.73 600.5 1264.72 600.5"/><polyline class="cls-1" points="1167.72 23.5 507.73 23.5 507.73 317.5 315.73 317.5 315.73 426.5 579.73 426.5 579.73 240.5 861.73 240.5 861.73 573.5 1237.72 573.5"/><polyline class="cls-1" points="1142.72 1.5 482.73 1.5 482.73 295.5 290.73 295.5 290.73 404.5 554.73 404.5 554.73 218.5 836.73 218.5 836.73 551.5 1212.72 551.5"/><polyline class="cls-1" points="21.73 89.5 454.91 88.5 454.91 267.5 685.86 267.5"/><path class="cls-2" d="M21.77,108.67A19.17,19.17,0,1,1,40.9,89.46,19.17,19.17,0,0,1,21.77,108.67Z"/><path class="cls-3" d="M21.78,111.22A21.72,21.72,0,1,0,0,89.55a21.74,21.74,0,0,0,21.78,21.67Zm-.09-38.34A16.62,16.62,0,1,1,5.1,89.54,16.63,16.63,0,0,1,21.69,72.88Z"/><path class="cls-2" d="M685.86,278.78a11.28,11.28,0,1,0-11.28-11.28A11.28,11.28,0,0,0,685.86,278.78Z"/><path class="cls-3" d="M685.86,280.28a12.78,12.78,0,1,1,12.78-12.78,12.8,12.8,0,0,1-12.78,12.78Zm0-22.56a9.78,9.78,0,1,0,9.78,9.78,9.79,9.79,0,0,0-9.78-9.78Z"/></g></g></svg>