<svg xmlns="http://www.w3.org/2000/svg" viewBox="0 0 977 637.28"><defs><style>.cls-1{fill:none;stroke:#abd5ff;stroke-linecap:round;stroke-linejoin:round;stroke-width:3px;}.cls-2{fill:#fff;}.cls-3{fill:#abd5ff;}</style></defs><title>bg ele l 2</title><g id="Camada_2" data-name="Camada 2"><g id="Camada_1-2" data-name="Camada 1"><polyline class="cls-1" points="71.5 551.5 731.5 551.5 731.5 257.5 923.5 257.5 923.5 148.5 659.5 148.5 659.5 334.5 377.5 334.5 377.5 1.5 1.5 1.5"/><polyline class="cls-1" points="98.5 578.5 758.5 578.5 758.5 284.5 950.5 284.5 950.5 175.5 686.5 175.5 686.5 361.5 404.5 361.5 404.5 28.5 28.5 28.5"/><polyline class="cls-1" points="123.5 600.5 783.5 600.5 783.5 306.5 975.5 306.5 975.5 197.5 711.5 197.5 711.5 383.5 429.5 383.5 429.5 50.5 53.5 50.5"/><line class="cls-1" x1="130.5" y1="624.5" x2="918.36" y2="624.5"/><path class="cls-2" d="M917.72,635.78a11.28,11.28,0,1,0-11.28-11.28A11.28,11.28,0,0,0,917.72,635.78Z"/><path class="cls-3" d="M917.72,637.28A12.78,12.78,0,1,1,930.5,624.5a12.79,12.79,0,0,1-12.78,12.78Zm0-22.56a9.78,9.78,0,1,0,9.78,9.78,9.79,9.79,0,0,0-9.78-9.78Z"/></g></g></svg>