<svg xmlns="http://www.w3.org/2000/svg" viewBox="0 0 349.5 728.28"><defs><style>.cls-1{fill:none;stroke:#b2d9ff;stroke-linecap:round;stroke-linejoin:round;stroke-width:3px;}.cls-2{fill:#fff;}.cls-3{fill:#b2d9ff;}</style></defs><title>footer bg ele</title><g id="Camada_2" data-name="Camada 2"><g id="Camada_1-2" data-name="Camada 1"><line class="cls-1" x1="137" y1="661.78" x2="137" y2="121.92"/><circle class="cls-2" cx="137" cy="122.56" r="11.28"/><path class="cls-3" d="M149.78,122.56A12.78,12.78,0,1,1,137,109.78a12.8,12.8,0,0,1,12.78,12.78Zm-22.56,0a9.78,9.78,0,1,0,9.78-9.78,9.79,9.79,0,0,0-9.78,9.78Z"/><line class="cls-1" x1="276" y1="726.78" x2="276" y2="186.92"/><circle class="cls-2" cx="276" cy="187.56" r="11.28"/><path class="cls-3" d="M288.78,187.56A12.78,12.78,0,1,1,276,174.78a12.8,12.8,0,0,1,12.78,12.78Zm-22.56,0a9.78,9.78,0,1,0,9.78-9.78,9.79,9.79,0,0,0-9.78,9.78Z"/><polyline class="cls-1" points="348 726.78 348 174.78 348 12.78 12.14 12.78"/><path class="cls-2" d="M12.78,1.5A11.28,11.28,0,1,0,24.06,12.78,11.28,11.28,0,0,0,12.78,1.5Z"/><path class="cls-3" d="M12.78,0A12.78,12.78,0,1,1,0,12.78,12.79,12.79,0,0,1,12.78,0Zm0,22.56A9.78,9.78,0,1,0,3,12.78a9.79,9.79,0,0,0,9.78,9.78Z"/><polyline class="cls-1" points="206 661.78 206 109.78 307.86 109.78"/><path class="cls-2" d="M307.22,121.06a11.28,11.28,0,1,0-11.28-11.28A11.28,11.28,0,0,0,307.22,121.06Z"/><path class="cls-3" d="M307.22,122.56A12.78,12.78,0,1,1,320,109.78a12.79,12.79,0,0,1-12.78,12.78Zm0-22.56a9.78,9.78,0,1,0,9.78,9.78,9.79,9.79,0,0,0-9.78-9.78Z"/></g></g></svg>